<svg xmlns="http://www.w3.org/2000/svg" width="1280" height="820" viewBox="0 0 1280 820">
  <defs>
    <linearGradient id="sceneGradient" x1="0" x2="1" y1="0" y2="1">
      <stop offset="0" stop-color="#202c28"/>
      <stop offset="1" stop-color="#0d1513"/>
    </linearGradient>
    <pattern id="sceneGrid" width="40" height="40" patternUnits="userSpaceOnUse">
      <path d="M40 0H0v40" fill="none" stroke="#263b36" stroke-width="1"/>
    </pattern>
    <filter id="glow" x="-20%" y="-20%" width="140%" height="140%">
      <feDropShadow dx="0" dy="0" stdDeviation="4" flood-color="#b8f25d" flood-opacity="0.25"/>
    </filter>
  </defs>

  <rect width="1280" height="820" fill="url(#sceneGradient)"/>
  <rect width="1280" height="820" fill="url(#sceneGrid)" opacity="0.85"/>
  <ellipse cx="640" cy="670" rx="540" ry="90" fill="#1a2421"/>

  <g transform="translate(235 360)">
    <rect x="-47" y="-180" width="94" height="360" rx="34" fill="#6ee7d8" opacity="0.28" stroke="#aaffff" stroke-width="6"/>
    <rect x="-22" y="-222" width="44" height="50" fill="#8bd7ff"/>
    <rect x="-30" y="-238" width="60" height="18" fill="#58a8ce"/>
    <rect x="-22" y="-115" width="16" height="210" fill="#ffffff" opacity="0.32"/>
  </g>

  <g transform="translate(525 280) rotate(-4.5)">
    <rect width="320" height="250" rx="20" fill="#c9a56b"/>
    <ellipse cx="160" cy="122" rx="115" ry="58" fill="#5c3616" opacity="0.45" transform="rotate(11 160 122)"/>
    <rect x="18" y="18" width="284" height="214" fill="none" stroke="#624c2e" stroke-width="6"/>
  </g>

  <g transform="translate(930 555)">
    <rect width="105" height="55" rx="12" fill="#2f3431"/>
    <rect x="12" y="10" width="52" height="35" fill="#f6d04d"/>
    <rect x="105" y="17" width="12" height="21" fill="#d9d9d0"/>
    <text x="78" y="35" fill="#111" font-size="22" font-weight="700" font-family="monospace">+</text>
  </g>

  <g transform="translate(975 300)">
    <ellipse cx="0" cy="20" rx="70" ry="88" fill="#e3df9a" transform="rotate(-14)"/>
    <ellipse cx="-44" cy="-54" rx="44" ry="20" fill="#9bd06a" transform="rotate(-26 -44 -54)"/>
    <rect x="-8" y="-92" width="16" height="48" fill="#75472d"/>
    <ellipse cx="26" cy="36" rx="10" ry="14" fill="#4b2d23"/>
    <ellipse cx="-18" cy="-5" rx="9" ry="13" fill="#4b2d23"/>
  </g>

  <g transform="translate(455 662)">
    <rect x="-45" y="-56" width="90" height="112" rx="28" fill="#f28ab2"/>
    <circle cy="-2" r="25" fill="#f8d3e2"/>
    <rect x="-16" y="-84" width="32" height="28" fill="#7f3b66"/>
  </g>

  <g opacity="0.95">
    <rect x="692" y="629" width="55" height="22" rx="5" fill="#d8d4c8" transform="rotate(12 720 640)"/>
    <rect x="771" y="666" width="38" height="18" rx="5" fill="#88a39a" transform="rotate(3 790 675)"/>
    <rect x="319" y="624" width="32" height="12" rx="4" fill="#ece8df" transform="rotate(-19 335 630)"/>
    <rect x="1054" y="628" width="72" height="25" rx="5" fill="#3d4b47" transform="rotate(16 1090 640)"/>
    <rect x="996" y="692" width="38" height="16" rx="5" fill="#d8d4c8" transform="rotate(25 1015 700)"/>
  </g>

  <g fill="none" stroke-width="5" filter="url(#glow)">
    <rect x="130" y="142" width="222" height="443" stroke="#6ee7d8"/>
    <rect x="520" y="252" width="338" height="318" stroke="#b79cff"/>
    <rect x="920" y="548" width="118" height="77" stroke="#ff6b5f"/>
    <rect x="890" y="215" width="195" height="175" stroke="#f3c969"/>
    <rect x="390" y="595" width="130" height="125" stroke="#7ab7ff"/>
  </g>

  <g font-family="monospace" font-size="24" font-weight="700">
    <text x="130" y="130" fill="#6ee7d8">透明塑料瓶 86%</text>
    <text x="520" y="240" fill="#b79cff">沾污外卖盒 74%</text>
    <text x="920" y="536" fill="#ff6b5f">电池 81%</text>
    <text x="890" y="203" fill="#f3c969">果核 69%</text>
    <text x="390" y="583" fill="#7ab7ff">干扰物 58%</text>
  </g>
</svg>
